<svg xmlns="http://www.w3.org/2000/svg" viewBox="0 0 40 40">
  <circle cx="20" cy="20" r="20" fill="#FFF8E7"/>
  <path d="M14 33 Q13 22 12 12 Q16 10 16 15 Q17 22 16 33Z" fill="#8B4E23" opacity="0.5" stroke="#8B4E23" stroke-width="1.3"/>
  <path d="M20 33 Q20 20 20 10 Q20 10 20 33Z" fill="#8B4E23" stroke="#8B4E23" stroke-width="1.5" stroke-linecap="round"/>
  <path d="M26 33 Q27 22 28 12 Q24 10 24 15 Q23 22 24 33Z" fill="#8B4E23" opacity="0.5" stroke="#8B4E23" stroke-width="1.3"/>
  <path d="M12 12 Q10 7 14 7 Q17 7 16 12" fill="#8B4E23" opacity="0.4"/>
  <path d="M20 10 Q20 6 20 7 Q20 7 20 10" stroke="#8B4E23" stroke-width="1.4"/>
  <path d="M28 12 Q30 7 26 7 Q23 7 24 12" fill="#8B4E23" opacity="0.4"/>
</svg>
