<svg xmlns="http://www.w3.org/2000/svg" viewBox="0 0 40 40">
  <circle cx="20" cy="20" r="20" fill="#FFF8E7"/>
  <path d="M14 30 Q10 24 11 17 Q12 10 17 8 Q22 6 25 10 Q28 14 26 20 Q24 26 20 29 Z" fill="#8B4E23" opacity="0.5" stroke="#8B4E23" stroke-width="1.4"/>
  <path d="M17 8 Q14 5 12 7" stroke="#8B4E23" stroke-width="1.4" fill="none" stroke-linecap="round"/>
  <path d="M22 7 Q23 4 26 5" stroke="#8B4E23" stroke-width="1.4" fill="none" stroke-linecap="round"/>
  <line x1="11" y1="15" x2="8" y2="13" stroke="#8B4E23" stroke-width="1.3" stroke-linecap="round"/>
  <line x1="11" y1="19" x2="7" y2="19" stroke="#8B4E23" stroke-width="1.3" stroke-linecap="round"/>
  <line x1="12" y1="23" x2="8" y2="24" stroke="#8B4E23" stroke-width="1.3" stroke-linecap="round"/>
  <line x1="25" y1="15" x2="29" y2="13" stroke="#8B4E23" stroke-width="1.3" stroke-linecap="round"/>
  <line x1="26" y1="19" x2="30" y2="18" stroke="#8B4E23" stroke-width="1.3" stroke-linecap="round"/>
  <path d="M14 30 L12 34 M17 31 L16 35 M20 29 L20 34" stroke="#8B4E23" stroke-width="1.3" stroke-linecap="round"/>
  <circle cx="18" cy="10" r="1.5" fill="#FFF8E7"/>
</svg>
